<svg width="14" height="16" viewBox="0 0 14 16" fill="none" xmlns="http://www.w3.org/2000/svg">
<path d="M13.6829 5.552C13.6742 5.47851 13.6574 5.4061 13.6329 5.336V5.264C13.5928 5.18174 13.5393 5.10613 13.4745 5.04L8.47196 0.24C8.40304 0.177773 8.32423 0.126465 8.23851 0.0879999H8.16347L7.89667 0H2.84415C2.18077 0 1.54457 0.252856 1.07549 0.702944C0.606419 1.15303 0.342896 1.76348 0.342896 2.4V13.6C0.342896 14.2365 0.606419 14.847 1.07549 15.2971C1.54457 15.7471 2.18077 16 2.84415 16H11.1816C11.845 16 12.4812 15.7471 12.9503 15.2971C13.4194 14.847 13.6829 14.2365 13.6829 13.6V5.6C13.6829 5.6 13.6829 5.6 13.6829 5.552ZM8.6804 2.728L10.8398 4.8H8.6804V2.728ZM12.0154 13.6C12.0154 13.8122 11.9276 14.0157 11.7712 14.1657C11.6148 14.3157 11.4028 14.4 11.1816 14.4H2.84415C2.62302 14.4 2.41095 14.3157 2.2546 14.1657C2.09824 14.0157 2.0104 13.8122 2.0104 13.6V2.4C2.0104 2.18783 2.09824 1.98434 2.2546 1.83431C2.41095 1.68429 2.62302 1.6 2.84415 1.6H7.0129V5.6C7.0129 5.81217 7.10074 6.01566 7.2571 6.16569C7.41345 6.31571 7.62552 6.4 7.84665 6.4H12.0154V13.6Z" fill="#1E1919"/>
</svg>
